HIERARCHY
ROOT Hips
{
  OFFSET 179.979 97.3047 303.174
  CHANNELS 6 Xposition Yposition Zposition Zrotation Xrotation Yrotation
  JOINT Spine
  {
    OFFSET 0.000859786 9.92346 -1.22733
    CHANNELS 3 Zrotation Xrotation Yrotation
    JOINT Spine1
    {
      OFFSET 0 11.732 0
      CHANNELS 3 Zrotation Xrotation Yrotation
      JOINT Spine2
      {
        OFFSET 0 13.4588 0
        CHANNELS 3 Zrotation Xrotation Yrotation
        JOINT Neck
        {
          OFFSET 2.54812e-05 15.0278 0.877907
          CHANNELS 3 Zrotation Xrotation Yrotation
          JOINT Head
          {
            OFFSET 0 10.3218 3.14243
            CHANNELS 3 Zrotation Xrotation Yrotation
            End Site
            {
              OFFSET 0 0 0
            }
          }
        }
        JOINT LeftShoulder
        {
          OFFSET 6.10582 9.10629 0.757062
          CHANNELS 3 Zrotation Xrotation Yrotation
          JOINT LeftArm
          {
            OFFSET 0 12.9223 0
            CHANNELS 3 Zrotation Xrotation Yrotation
            JOINT LeftForeArm
            {
              OFFSET 0 27.4047 0
              CHANNELS 3 Zrotation Xrotation Yrotation
              JOINT LeftHand
              {
                OFFSET -1.28204e-05 27.6145 0
                CHANNELS 3 Zrotation Xrotation Yrotation
                End Site
                {
                  OFFSET 0 0 0
                }
              }
            }
          }
        }
        JOINT RightShoulder
        {
          OFFSET -6.1057 9.10638 0.757076
          CHANNELS 3 Zrotation Xrotation Yrotation
          JOINT RightArm
          {
            OFFSET 0 12.9223 0
            CHANNELS 3 Zrotation Xrotation Yrotation
            JOINT RightForeArm
            {
              OFFSET 0 27.4047 0
              CHANNELS 3 Zrotation Xrotation Yrotation
              JOINT RightHand
              {
                OFFSET 1.28428e-05 27.6145 1.44975e-05
                CHANNELS 3 Zrotation Xrotation Yrotation
                End Site
                {
                  OFFSET 0 0 0
                }
              }
            }
          }
        }
      }
    }
  }
  JOINT LeftUpLeg
  {
    OFFSET 9.12387 -6.65719 -0.0554031
    CHANNELS 3 Zrotation Xrotation Yrotation
    JOINT LeftLeg
    {
      OFFSET 0 40.5994 0
      CHANNELS 3 Zrotation Xrotation Yrotation
      JOINT LeftFoot
      {
        OFFSET 0 42.099 0
        CHANNELS 3 Zrotation Xrotation Yrotation
        JOINT LeftToeBase
        {
          OFFSET 0 15.7216 0
          CHANNELS 3 Zrotation Xrotation Yrotation
          End Site
          {
            OFFSET 0 0 0
          }
        }
      }
    }
  }
  JOINT RightUpLeg
  {
    OFFSET -9.12503 -6.6556 -0.0553527
    CHANNELS 3 Zrotation Xrotation Yrotation
    JOINT RightLeg
    {
      OFFSET 0 40.5994 0
      CHANNELS 3 Zrotation Xrotation Yrotation
      JOINT RightFoot
      {
        OFFSET 0 42.099 0
        CHANNELS 3 Zrotation Xrotation Yrotation
        JOINT RightToeBase
        {
          OFFSET 0 15.7216 0
          CHANNELS 3 Zrotation Xrotation Yrotation
          End Site
          {
            OFFSET 0 0 0
          }
        }
      }
    }
  }
}
MOTION
Frames:	11
Frame Time:	0.0333333
139.965 98.0411 273.057 -20.1685 -50.9026 -170.906 2.06523 0.035811 -4.08796 4.74717 13.8377 -9.03632 5.85397 20.3474 -9.35961 -2.71541 -11.95 -6.54925 -2.22172 -36.2398 -7.5332 -97.1824 -5.08445 91.8446 -0.695464 26.2106 1.46324 6.25757 -17.398 -0.752359 -14.5504 -0.863055 -41.6704 95.9279 -7.58678 -91.385 -3.63811 7.66632 9.63536 -20.5354 -24.836 1.18542 17.8801 -7.06203 35.0211 -166.954 -13.5813 -18.9615 -2.84981 -20.5848 -1.57408 -19.7629 55.152 -4.68573 -0.965272 26.367 -3.60229 130.781 59.5209 40.3767 5.88546 -31.6078 12.9158 -35.7023 74.4197 31.1015 0.963532 26.3682 3.55537 
139.962 98.0316 273.087 -20.2913 -50.846 -170.981 2.05522 0.0330518 -4.10234 4.72819 13.8309 -9.06136 5.83797 20.3401 -9.3854 -2.80081 -11.8342 -6.56037 -2.222 -36.1969 -7.57024 -97.2752 -5.08977 91.8522 -0.459208 26.1606 1.39075 6.18269 -17.3172 -0.742388 -14.3615 -0.651291 -41.486 95.9154 -7.62255 -91.3851 -3.58991 7.65762 9.77836 -20.4987 -24.7759 1.1774 17.952 -7.03429 35.0714 -166.964 -13.4836 -19.072 -2.87201 -20.6405 -1.64895 -19.5851 55.1475 -4.74619 -0.965272 26.367 -3.60229 130.76 59.446 40.4095 5.79744 -31.6118 12.7632 -35.6441 74.5574 31.1087 0.963532 26.3682 3.55537 
139.958 98.0141 273.11 -20.3447 -50.7986 -171.04 2.05266 0.0322809 -4.10573 4.72269 13.8203 -9.06654 5.83305 20.3293 -9.39056 -2.8095 -11.6719 -6.57617 -2.29087 -36.2285 -7.60502 -97.3401 -5.08881 91.8582 -0.265372 26.1625 1.30226 6.13903 -17.2484 -0.734258 -14.2322 -0.538907 -41.2812 95.9634 -7.63519 -91.3815 -3.50306 7.59013 9.84854 -20.4671 -24.7482 1.17409 18.1631 -7.00971 35.0844 -166.9 -13.4101 -18.9985 -2.91149 -20.6264 -1.55337 -19.8366 55.0306 -4.66737 -0.965272 26.367 -3.60229 130.56 59.3748 40.8919 5.73249 -31.7577 12.3846 -35.0215 74.8124 30.6046 0.963532 26.3682 3.55537 
139.954 98.0179 273.136 -20.4156 -50.7268 -171.115 2.04406 0.0353522 -4.10838 4.70503 13.8272 -9.06991 5.81516 20.3363 -9.39226 -2.77948 -11.5644 -6.58931 -2.36383 -36.183 -7.62177 -97.3404 -5.07557 91.8603 -0.12018 26.2353 1.12833 6.14926 -17.2048 -0.729888 -14.1454 -0.520782 -41.1241 95.9905 -7.65784 -91.3788 -3.47522 7.61194 9.93228 -20.4367 -24.7544 1.1719 18.0883 -6.94214 35.2876 -166.913 -13.3724 -18.8772 -2.95739 -20.5805 -1.65025 -19.8862 55.0375 -4.79465 -0.965272 26.367 -3.60229 130.27 59.206 41.286 5.93276 -31.8317 12.1747 -34.309 75.0036 30.0338 0.963532 26.3682 3.55537 
139.945 98.058 273.165 -20.4906 -50.637 -171.204 2.03143 0.0463201 -4.1109 4.68255 13.85 -9.07364 5.7903 20.3595 -9.38801 -2.76976 -11.502 -6.61281 -2.38583 -36.1095 -7.64534 -97.3106 -5.03243 91.8644 -0.0198928 26.2875 1.01699 6.14101 -17.1709 -0.726162 -14.1267 -0.346488 -41.0031 95.9791 -7.69511 -91.3782 -3.52772 7.72318 9.94729 -20.379 -24.7811 1.17064 17.9194 -6.90299 35.3464 -166.955 -13.3724 -18.8475 -2.98678 -20.514 -1.74047 -20.0109 55.0856 -4.92667 -0.965272 26.367 -3.60229 130.221 59.0257 41.3665 6.06058 -31.7396 12.047 -33.6909 75.0714 29.5634 0.963532 26.3682 3.55537 
139.928 98.1103 273.192 -20.6099 -50.548 -171.311 2.01239 0.0573523 -4.11379 4.64585 13.8735 -9.07692 5.75337 20.3831 -9.38954 -2.79195 -11.5393 -6.64264 -2.37881 -35.9327 -7.67134 -97.2666 -4.96757 91.8706 0.0361607 26.2988 0.982309 6.10494 -17.1432 -0.724564 -14.0704 -0.214705 -41.0497 95.9537 -7.65836 -91.3851 -3.51139 7.87396 9.84904 -20.2919 -24.7986 1.16995 17.6943 -6.81448 35.3623 -167.042 -13.3958 -18.8633 -3.01479 -20.4335 -1.77645 -20.1753 55.1364 -4.99055 -0.965272 26.367 -3.60229 130.387 58.9233 41.1503 5.94411 -31.6001 11.9598 -33.3187 75.056 29.3931 0.963532 26.3682 3.55537 
139.91 98.1505 273.207 -20.7558 -50.4765 -171.414 1.98805 0.0616561 -4.11716 4.59727 13.8841 -9.07901 5.70669 20.3934 -9.39644 -2.8311 -11.6274 -6.67361 -2.35799 -35.7447 -7.69843 -97.2128 -4.93119 91.8713 0.100875 26.282 0.958358 6.06838 -17.1551 -0.724265 -13.946 -0.132176 -41.1614 95.9377 -7.58004 -91.3935 -3.44003 8.0202 9.68067 -20.2632 -24.8326 1.17001 17.5857 -6.66465 35.5384 -167.118 -13.4392 -18.8797 -3.04677 -20.3729 -1.69462 -20.4397 55.155 -4.91078 -0.965272 26.367 -3.60229 130.509 58.8165 40.8273 5.93578 -31.4443 12.0282 -33.3862 75.0036 29.5162 0.963532 26.3682 3.55537 
139.895 98.1886 273.209 -20.8771 -50.4488 -171.492 1.966 0.0541933 -4.12033 4.5525 13.8716 -9.07933 5.66161 20.3809 -9.39589 -2.87327 -11.7153 -6.70684 -2.33945 -35.5552 -7.72876 -97.1413 -4.94608 91.8624 0.191578 26.2539 0.908815 6.06128 -17.1759 -0.725697 -13.8111 -0.183867 -41.2987 95.9377 -7.52705 -91.3967 -3.39363 8.15691 9.50855 -20.2652 -24.8803 1.17071 17.6366 -6.59296 35.7331 -167.183 -13.4379 -18.8912 -3.0873 -20.3511 -1.61125 -20.4676 55.1214 -4.79034 -0.965272 26.367 -3.60229 130.648 58.753 40.3436 6.00675 -31.2414 12.2572 -33.7794 74.8347 29.8068 0.963532 26.3682 3.55537 
139.878 98.2172 273.208 -20.9585 -50.4562 -171.537 1.95118 0.0383676 -4.12302 4.52096 13.8409 -9.07788 5.62941 20.3503 -9.39588 -2.90835 -11.7551 -6.73992 -2.35596 -35.44 -7.76597 -97.0582 -4.91392 91.8597 0.183718 26.2249 0.784983 6.11896 -17.2121 -0.730771 -13.8028 -0.306083 -41.6325 95.9415 -7.5412 -91.3926 -3.4044 8.28483 9.37323 -20.2619 -24.9533 1.17209 17.6835 -6.48093 35.7944 -167.237 -13.3835 -18.8993 -3.10818 -20.3806 -1.62401 -20.1026 55.0248 -4.74836 -0.965272 26.367 -3.60229 130.783 58.705 39.8783 6.10332 -31.0127 12.5208 -34.3249 74.6574 30.1637 0.963532 26.3682 3.55537 
139.85 98.2349 273.22 -21.0121 -50.4753 -171.544 1.94131 0.0210809 -4.12586 4.49819 13.8074 -9.07506 5.60773 20.3166 -9.39635 -2.96357 -11.7377 -6.7569 -2.38111 -35.3658 -7.79755 -97.0025 -4.90979 91.8553 0.15682 26.1675 0.664999 6.15375 -17.3111 -0.742248 -13.7403 -0.256935 -41.9171 95.9306 -7.60098 -91.3832 -3.47065 8.384 9.28598 -20.2348 -24.9926 1.17353 17.6802 -6.39882 35.6542 -167.28 -13.3543 -18.9977 -3.04504 -20.3812 -1.59326 -19.9371 54.9777 -4.71099 -0.965272 26.367 -3.60229 130.947 58.6594 39.4033 6.16123 -30.755 12.7711 -34.9829 74.5004 30.6002 0.963532 26.3682 3.55537 
139.815 98.2507 273.243 -21.0537 -50.5035 -171.534 1.93775 0.0114659 -4.12981 4.48686 13.7887 -9.07137 5.59759 20.2977 -9.39499 -3.05537 -11.7862 -6.75129 -2.3217 -35.237 -7.80177 -97.0047 -4.935 91.8516 0.198593 26.0126 0.506803 6.12735 -17.3331 -0.744323 -13.6383 -0.220453 -41.9832 95.924 -7.72021 -91.3651 -3.59338 8.44532 9.27714 -20.1899 -25.0039 1.175 17.6423 -6.36408 35.4333 -167.33 -13.3406 -19.0796 -2.96748 -20.3821 -1.51346 -19.9458 55.0475 -4.61893 -0.965272 26.367 -3.60229 131.164 58.6337 38.9876 6.06602 -30.4881 12.9152 -35.5461 74.3597 30.9712 0.963532 26.3682 3.55537 
